<svg width="34" height="34" viewBox="0 0 34 34" fill="none" xmlns="http://www.w3.org/2000/svg">
<g clip-path="url(#clip0_1_606)">
<path d="M32.6718 15.6719H4.54494L9.20427 11.0351C9.72416 10.5177 9.72616 9.67678 9.20872 9.15689C8.69128 8.63693 7.85031 8.635 7.33042 9.15237L0.390699 16.0586C0.390234 16.059 0.389902 16.0595 0.389503 16.0599C-0.129063 16.5773 -0.130723 17.4209 0.38937 17.9401C0.389835 17.9405 0.390167 17.941 0.390566 17.9414L7.33028 24.8476C7.85011 25.3649 8.69108 25.3631 9.20859 24.8431C9.72602 24.3232 9.72403 23.4823 9.20414 22.9648L4.54494 18.3281H32.6718C33.4054 18.3281 34 17.7335 34 17C34 16.2665 33.4054 15.6719 32.6718 15.6719Z" fill="#E1E1E1"/>
</g>
<defs>
<clipPath id="clip0_1_606">
<rect width="34" height="34" fill="white"/>
</clipPath>
</defs>
</svg>
