<svg width="34" height="18" viewBox="0 0 34 18" fill="none" xmlns="http://www.w3.org/2000/svg">
<path d="M32.6718 7.67186H4.54494L9.20427 3.03512C9.72416 2.51768 9.72616 1.67678 9.20872 1.15689C8.69128 0.636925 7.85031 0.635 7.33042 1.15237L0.390699 8.05861C0.390234 8.05901 0.389902 8.05947 0.389503 8.05987C-0.129063 8.57731 -0.130723 9.42093 0.38937 9.94009C0.389835 9.94049 0.390167 9.94095 0.390566 9.94135L7.33028 16.8476C7.85011 17.3649 8.69108 17.3631 9.20859 16.8431C9.72602 16.3232 9.72403 15.4823 9.20414 14.9648L4.54494 10.3281H32.6718C33.4054 10.3281 34 9.7335 34 8.99998C34 8.26646 33.4054 7.67186 32.6718 7.67186Z" fill="#E1E1E1"/>
</svg>
